<?xml version="1.0" encoding="iso-8859-1"?>
<!-- Uploaded to: SVG Repo, www.svgrepo.com, Generator: SVG Repo Mixer Tools -->
<!DOCTYPE svg PUBLIC "-//W3C//DTD SVG 1.1//EN" "http://www.w3.org/Graphics/SVG/1.1/DTD/svg11.dtd">
<svg fill="#000000" height="800px" width="800px" version="1.1" id="Capa_1" xmlns="http://www.w3.org/2000/svg" xmlns:xlink="http://www.w3.org/1999/xlink" 
	 viewBox="0 0 449 449" xml:space="preserve">
<g>
	<path d="M448.157,201.515c-12.989-16.7-40.437-29.7-81.581-38.638c-40.783-8.86-78.863-10.302-92.821-10.517
		c-12.286-23.703-44.221-53.148-96.131-61.34c-56.097-8.855-97.866,2.033-120.781,31.495c-20.46,26.306-54.995,54.056-55.342,54.333
		c-1.725,1.38-2.004,3.897-0.624,5.622c0.79,0.987,1.952,1.501,3.126,1.501c0.876,0,1.759-0.286,2.496-0.877
		c1.444-1.155,35.61-28.605,56.658-55.667c21.02-27.024,60.171-36.882,113.22-28.505c22.642,3.573,41.197,11.353,55.742,20.853
		c-4.447-1.644-9.284-3.211-14.437-4.548c-32.363-8.392-61.351-3.505-83.911,14.119c-17.144,2.079-33.06,5.946-46.365,10.032
		c-9.637,2.959-17.61,9.163-22.452,17.47c-6.07,10.422-6.07,21.547-0.001,33.066c0.664,1.26,1.504,2.382,2.469,3.355
		c-3.447,2.079-5.989,5.391-7.111,9.467c-1.096,3.98-0.655,8.028,1.143,11.514c-1.06,4.955-7.061,27.895-31.354,53.466
		c-1.521,1.602-1.456,4.134,0.146,5.655c0.773,0.734,1.765,1.1,2.754,1.1c1.059,0,2.114-0.417,2.901-1.245
		c20.604-21.689,28.821-41.607,31.921-51.754c19.835,18.145,46.121,34.679,65.148,45.577c14.315,8.2,26.676,14.473,33.468,17.81
		c-22.161,19.82-38.096,43.249-48.192,70.733c-0.762,2.073,0.302,4.372,2.376,5.134c0.455,0.167,0.921,0.246,1.379,0.246
		c1.629,0,3.16-1.003,3.755-2.622c15.983-43.51,47.396-76.482,96.034-100.802c25.196-12.602,43.187-29.002,52.242-47.56
		c1.576,0.102,3.155,0.168,4.739,0.168c5.537,0,11.095-0.619,16.517-1.842c20.685-4.665,44.286-7.03,70.147-7.03
		c24.797,0,51.354,2.232,78.935,6.637c1.628,0.254,3.238-0.501,4.074-1.914C449.279,204.593,449.166,202.812,448.157,201.515z
		 M421.208,189.996c-9.019-3.084-20.302-6.46-33.695-9.552c-33.475-7.726-86.748-14.928-152.443-6.257
		c0.952-1.947,2.448-3.608,4.411-4.79c9.986-6.017,20.52-9.067,31.305-9.067l0.445,0.002c22.998,0.171,59.677,2.983,93.647,10.363
		C388.296,175.782,407.28,182.315,421.208,189.996z M227.571,187.053c-3.666,1.208-9.565,2.873-17.363,4.162
		c-12.684,2.096-33.124,3.594-58.469-1.174c-8.005-1.506-15.875-2.385-23.351-2.84c8.904-1.143,18.377-1.958,28.223-2.231
		c36.085-1.002,58.384-5.677,69.54-8.809c-0.103,0.645-0.182,1.296-0.22,1.955C225.753,181.23,226.338,184.285,227.571,187.053z
		 M215.457,122.915c21.006,5.411,37.068,15.123,40.032,16.987c3.723,4.276,6.805,8.565,9.256,12.717
		c-6.032,0.562-11.966,1.969-17.763,4.209c-4.469-4.193-16.358-13.919-36.81-21.004c-19.611-6.793-40.088-8.711-59.617-7.867
		C169.011,118.263,190.771,116.559,215.457,122.915z M158.952,141.18c4.103-1.356,7.829-2.042,11.099-2.042
		c6.532,0,11.169,2.65,14.173,8.103c1.624,2.946,2.321,5.977,2.605,7.66c-2.498,2.921-6.963,4.63-12.257,4.63c0,0-0.001,0-0.002,0
		c-6.702,0-12.746-2.723-15.396-6.935C157.22,149.489,157.146,145.654,158.952,141.18z M71.866,160.875
		c3.826-6.564,10.179-11.483,17.888-13.85c17.445-5.357,39.539-10.353,62.863-11.154c-0.076,0.122-0.161,0.238-0.223,0.369
		c-4.636,9.658-2.554,16.542,0.01,20.616c4.143,6.583,12.636,10.673,22.167,10.674c0.001,0,0.001,0,0.002,0
		c8.667,0,16.071-3.521,19.807-9.419c0.454-0.718,0.669-1.561,0.612-2.407c-0.323-4.842-2.397-12.139-7.526-17.523
		c6.575,1.178,13.115,2.822,19.549,5.018c16.215,5.534,26.72,12.909,31.99,17.284c-1.224,0.651-2.442,1.333-3.651,2.061
		c-1.689,1.017-3.188,2.269-4.47,3.697c-4.42,1.654-27.537,9.428-74.494,10.733c-31.624,0.877-59.496,7.165-77.311,12.285
		c-2.777,0.798-5.673-0.466-7.047-3.073C67.266,177.143,67.213,168.864,71.866,160.875z M218.211,250.393
		c-17.06,8.53-32.079,18.106-45.145,28.793c-12.121-5.839-69.318-34.274-102.867-66.43c-2.155-2.065-2.969-5.018-2.176-7.896
		c0.801-2.908,3.037-5.051,5.983-5.73c0.102-0.023,0.203-0.051,0.303-0.082l2.821-0.87c2.699-0.535,37.024-7.064,73.13-0.275
		c43.605,8.203,73.579-0.873,82.31-4.104c0.281,0.243,0.569,0.481,0.865,0.71c0.425,0.327,0.85,0.652,1.278,0.978
		c9.004,6.816,19.645,11.412,30.838,13.457C256.901,224.904,240.67,239.159,218.211,250.393z M293.527,200.51
		c-4.846,1.093-9.811,1.646-14.757,1.646c-14.179,0-28.109-4.635-39.227-13.05c-0.41-0.311-0.819-0.624-1.227-0.938
		c-1.967-1.514-3.32-3.536-3.971-5.807c65.168-8.862,117.983-1.796,151.046,5.804c10.647,2.447,19.974,5.101,27.851,7.637
		c-16.473-1.662-32.472-2.517-47.809-2.517C338.981,193.285,314.788,195.716,293.527,200.51z"/>
	<path d="M175.5,156.471c4.136,0,7.5-3.364,7.5-7.5s-3.364-7.5-7.5-7.5s-7.5,3.364-7.5,7.5S171.364,156.471,175.5,156.471z
		 M175.5,148.471c0.275,0,0.5,0.225,0.5,0.5s-0.225,0.5-0.5,0.5s-0.5-0.225-0.5-0.5S175.224,148.471,175.5,148.471z"/>
</g>
</svg>